<svg viewBox="0 0 85 24" {...props}>
      <path d="M22.689 5.234 21.056 3.6l-1.104 1.104a11.5 11.5 0 1 0 3.046 7.78c.001-2.086-.572-4.132-1.656-5.915l1.347-1.335Zm-1.965 7.24a9.236 9.236 0 1 1-2.328-6.158l-7.979 7.978-3.785-3.785-1.688 1.622 5.419 5.418 9.312-9.313a9.156 9.156 0 0 1 1.05 4.237ZM30.852 14h-4.854V0h4.595c.6-.004 1.198.03 1.792.104.553.068 1.098.2 1.622.392a5.644 5.644 0 0 1 2.737 2.084 7.299 7.299 0 0 1 1.25 4.328c0 4.72-2.381 7.084-7.142 7.092Zm2.795-9.786a3.089 3.089 0 0 0-2.535-1.105h-1.577v7.737h1.577a3.142 3.142 0 0 0 2.602-1.072c.57-.808.844-1.787.777-2.773a4.34 4.34 0 0 0-.844-2.787Zm18.184 9.74.097-10.511-2.853 10.511h-2.24L44.001 3.444 44.1 13.92h-3.101V0h4.307l2.628 9.18L50.528 0h4.47v14l-3.167-.046Zm19.166-5.236a6.75 6.75 0 0 1-2.49 3.827 7.303 7.303 0 0 1-9.413-.562 6.621 6.621 0 0 1-2.093-5.03 6.62 6.62 0 0 1 2.071-4.952A6.964 6.964 0 0 1 64.11.004a6.733 6.733 0 0 1 5.963 3.2c.466.658.782 1.411.925 2.205H67.36a3.307 3.307 0 0 0-3.306-2.349 3.36 3.36 0 0 0-2.634 1.18 4.05 4.05 0 0 0-.96 2.713 4.127 4.127 0 0 0 .992 2.78 3.305 3.305 0 0 0 2.658 1.224 3.406 3.406 0 0 0 3.25-2.271l3.637.032ZM81.148 14l-.719-2.026h-4.842L74.845 14h-3.848l5.63-14h2.833l5.537 14h-3.849Zm-3.07-9.671-1.451 4.802h2.889l-1.439-4.802ZM25.997 24v-6.998h2.463c.334-.008.668.014 1 .067.289.045.565.156.81.326.22.18.4.411.526.675.131.3.2.626.2.957a2.199 2.199 0 0 1-.537 1.508 2.417 2.417 0 0 1-1.915.619H26.86V24h-.863Zm.863-3.669h1.694c.422.044.843-.076 1.19-.336.25-.234.383-.58.357-.935a1.334 1.334 0 0 0-.21-.754.94.94 0 0 0-.547-.416 4.084 4.084 0 0 0-.81-.056H26.86v2.497Zm6.137 3.635v-6.963h3.01a3.99 3.99 0 0 1 1.391.19c.319.126.585.359.756.66.187.32.285.683.285 1.053a1.78 1.78 0 0 1-.472 1.254 2.372 2.372 0 0 1-1.445.639c.192.093.372.21.536.347.288.277.541.59.757.929l1.182 1.892h-1.095l-.898-1.445c-.204-.33-.423-.652-.657-.962a1.73 1.73 0 0 0-.449-.46 1.378 1.378 0 0 0-.416-.19 2.557 2.557 0 0 0-.504 0h-1.062V24l-.92-.034Zm.92-3.884h1.937c.327.012.653-.033.964-.134.213-.08.396-.224.526-.415a1.138 1.138 0 0 0-.165-1.444 1.605 1.605 0 0 0-1.094-.313h-2.169v2.306Zm5.086.522a3.53 3.53 0 0 1 .976-2.642 3.467 3.467 0 0 1 2.527-.96 3.736 3.736 0 0 1 1.821.447c.504.297.912.733 1.175 1.256a3.74 3.74 0 0 1 .494 1.79 3.672 3.672 0 0 1-.459 1.845 2.852 2.852 0 0 1-1.268 1.234 3.738 3.738 0 0 1-1.775.425 3.594 3.594 0 0 1-1.845-.469 3.048 3.048 0 0 1-1.175-1.255 3.742 3.742 0 0 1-.47-1.67Zm1 0c-.043.705.21 1.397.704 1.933a2.605 2.605 0 0 0 1.793.702c.674 0 1.32-.254 1.792-.703a2.727 2.727 0 0 0 .705-2.02 3.301 3.301 0 0 0-.317-1.44 2.235 2.235 0 0 0-.882-.961c-.982-.55-2.239-.42-3.067.317a2.802 2.802 0 0 0-.752 2.194l.024-.022ZM49.026 24v-6.167h-2.028V17h5v.833h-2.14V24h-.832Zm3.972 0v-7h4.849v.833h-3.965v2.139h3.706v.82h-3.706v2.387h4.115V24h-5Zm11.11-2.474.89.226a2.978 2.978 0 0 1-1.008 1.674 2.831 2.831 0 0 1-1.786.571 3.255 3.255 0 0 1-1.766-.442 2.756 2.756 0 0 1-1.082-1.285 4.493 4.493 0 0 1-.358-1.825 3.91 3.91 0 0 1 .402-1.835 2.768 2.768 0 0 1 1.147-1.188 3.332 3.332 0 0 1 1.7-.42 2.831 2.831 0 0 1 1.7.507c.472.36.808.87.953 1.447l-.877.205a2.159 2.159 0 0 0-.671-1.08 1.834 1.834 0 0 0-1.083-.335 2.245 2.245 0 0 0-1.3.367c-.347.247-.605.6-.736 1.005a3.944 3.944 0 0 0-.27 1.328c-.009.51.075 1.02.248 1.5.14.398.417.734.78.95.346.21.743.318 1.148.314.459.013.907-.136 1.267-.421.367-.333.613-.777.703-1.264ZM68.056 24v-6.167h-2.058V17h5v.833H68.94V24h-.884Zm3.942 0v-7h4.838v.833h-3.954v2.139h3.707v.82H72.88v2.387h4.116V24h-5Zm7-.012v-6.986h2.498a6.34 6.34 0 0 1 1.295.102c.392.08.757.253 1.063.505.386.317.68.729.85 1.19.207.535.307 1.103.292 1.674.006.475-.06.949-.198 1.404a3.4 3.4 0 0 1-.49 1.022 2.293 2.293 0 0 1-.665.629 2.596 2.596 0 0 1-.864.36 5.184 5.184 0 0 1-1.167.111l-2.614-.011Zm.957-.82h1.552c.394.019.788-.026 1.167-.135a1.57 1.57 0 0 0 .653-.36c.247-.249.43-.552.538-.886.133-.425.2-.868.198-1.314a3.187 3.187 0 0 0-.373-1.685 1.89 1.89 0 0 0-.911-.797 4.115 4.115 0 0 0-1.237-.136h-1.587v5.313Z" fill="currentColor" />
</svg>
